<svg xmlns="http://www.w3.org/2000/svg" viewBox="0 0 233.47 175.11"><defs><style>.cls-1{fill:#1fb26f;}.cls-2{fill:#fff;stroke:#000;stroke-miterlimit:10;stroke-width:0.5px;}</style></defs><title>f1</title><g id="Layer_2" data-name="Layer 2"><g id="Layer_1-2" data-name="Layer 1"><path class="cls-1" d="M193.69,0S23.56,54.5,7.85,97.62c0,0-31.08,33.76,30.43,71.19,0,0,24.4,46.46,195.19-113Z"/><path class="cls-2" d="M58.42,128.79a32.44,32.44,0,0,1-3.84-2.63c-1.11-.94-2.34-1.79-3.62-2.7a30,30,0,0,1-3.91-3.33l-5.08-5c-2.28-2.32-4.49-4.69-6.7-7.06a4.53,4.53,0,0,0-1.91-1.37,3.09,3.09,0,0,1,.35-.65,9.41,9.41,0,0,1,3.68-2.65,1.78,1.78,0,0,1,1.49.08l2.5,1c.91.43,1.8,1,2.76,1.47a16.4,16.4,0,0,1,2.55,2.2c3.16,3.72,9.49-1.55,13.58-1.2a15.67,15.67,0,0,0,2-.44c2.4-.72,4.8-1.44,7.34-2a26.17,26.17,0,0,0,3.63-1.48c.35-.17.68-.24,1-.36l3.5-1.28,1.8-.63a10.91,10.91,0,0,0,2.26-1.28,4.72,4.72,0,0,1,1.59-.66,21.58,21.58,0,0,0,2.93-1,4.48,4.48,0,0,1,2.36-.4,8.24,8.24,0,0,0,1.65,0,5.56,5.56,0,0,1,2.93.58l1.18.41c.85.11,1.53.63,1.45,1.26a3.45,3.45,0,0,1-.38,1.24,13.7,13.7,0,0,1-3.63,3.94c-1.87,1.16-3.73,2.22-5.69,3.26a107.75,107.75,0,0,1-13.38,5.41c-2.64.9-18,3.06-13.77,8.36a3,3,0,0,1,.37.85,6.88,6.88,0,0,0,1.1,2.28,12.93,12.93,0,0,1,.92,1.56,1.66,1.66,0,0,1,0,1.24c-.51.58-.38,1.24-.11,2.08A11.38,11.38,0,0,1,58.42,128.79Z"/></g></g></svg>