<svg xmlns="http://www.w3.org/2000/svg" viewBox="0 0 242.26 114.43"><defs><style>.cls-1{fill:#fff035;}.cls-2{fill:#fff;stroke:#000;stroke-miterlimit:10;stroke-width:0.5px;}</style></defs><title>f10</title><g id="Layer_2" data-name="Layer 2"><g id="Layer_1-2" data-name="Layer 1"><path class="cls-1" d="M13.87,5.32s177.65-18.81,209.42,14.3c0,0,42.07,18.34.9,77.42,0,0-3.57,52.35-224.19-24.59Z"/><path class="cls-2" d="M164.93,51.88a36.48,36.48,0,0,1,8.78-1.61l3.18.1c1.29-.08,2.54.35,3.84.27l2-.12,10.88,2.24c1.61.41,3.21.6,4.82,1l6.75,1.83a.77.77,0,0,1,.55.69c0,1-.18,2-.2,2.83a5.12,5.12,0,0,1-.62,1.69,7.36,7.36,0,0,1-1.8,2.42,1.76,1.76,0,0,1-1.7.46,40.17,40.17,0,0,1-5.06-1.36c-1.55-.62-3.24-1.1-4.86-1.58l-2.15-1a2.53,2.53,0,0,1-.81-.31,2.68,2.68,0,0,1-1.55-.63c-.16-.2-.53-.25-.75-.46-1-.37-1.93-.82-3-1.19l-1.85-.83a.6.6,0,0,1-.22-.06,6.65,6.65,0,0,1-2.73-.92c-1.88-.17-3.66-1-5.61-1-1.16,0-2.25-.23-3.34-.31l-.73-.17a2.55,2.55,0,0,0-.81-.24,2.51,2.51,0,0,1-1.49-.78c-.24-.42-.53-.47-1-.44l-1.51.23c0-.07-.08-.14-.08-.21A10.4,10.4,0,0,1,164.93,51.88Zm-6.79-.17c1.16.07,2.1.16,3,.17a1.37,1.37,0,0,1,1.27.72c.08.14.17.5.11.57-.26.45,0,.94,0,1.3s-.1.73-.08,1c0,.65-.38.88-1.09,1.14a5,5,0,0,1-3.71-.64,4.46,4.46,0,0,1-2-2.41,1,1,0,0,0-.24-.35c-.32-.48-.33-.7.31-.88Z"/></g></g></svg>