<svg xmlns="http://www.w3.org/2000/svg" viewBox="0 0 233.47 175.11"><defs><style>.cls-1{fill:#1fb26f;}.cls-2{fill:#fff;}</style></defs><title>f11</title><g id="Layer_2" data-name="Layer 2"><g id="Layer_1-2" data-name="Layer 1"><path class="cls-1" d="M39.78,0S209.91,54.5,225.62,97.62c0,0,31.08,33.76-30.43,71.19,0,0-24.4,46.46-195.19-113Z"/><path class="cls-2" d="M206.92,116.76c.1-3.5-1.19-6.75-2.12-9.92s-1.63-6.77-3.53-9.54-4.88-4.68-7.59-6.76a31.82,31.82,0,0,0-8.62-5.23,32.69,32.69,0,0,0-9.95-2.15c-3.49-.1-6.74,1.18-9.92,2.13a31.74,31.74,0,0,0-9.17,4,32.67,32.67,0,0,0-7.47,6.8,32.35,32.35,0,0,0-4.56,9,31.68,31.68,0,0,0-1.68,9.88,29.16,29.16,0,0,0,5.61,18.9,32.35,32.35,0,0,0,6.6,7.59,31.94,31.94,0,0,0,9,4.51c3.13,1.08,6.34,2.29,9.83,2.38a32.34,32.34,0,0,0,10-1.55,31.93,31.93,0,0,0,9.12-4.36,32.55,32.55,0,0,0,7.54-6.8c2.07-2.67,3.16-5.92,4.35-9.12S206.83,120.25,206.92,116.76Zm-62.49-1.69c.09-3.53.09-7.08,1.44-10.11s4.15-5.43,6.61-7.76,4.92-4.87,8.17-6.13a26.66,26.66,0,0,1,10.15-1.25,25.46,25.46,0,0,1,9.75,2.52c3.15,1.39,6.45,2.74,8.77,5.24a26.62,26.62,0,0,1,5.25,8.84,29.66,29.66,0,0,1-.44,20.07,27,27,0,0,1-24.75,15.74,26.26,26.26,0,0,1-9.93-2.68,26.57,26.57,0,0,1-8.55-5.64c-2.33-2.45-3.74-5.69-5-8.91A25.25,25.25,0,0,1,144.43,115.07Z"/><path class="cls-2" d="M171.4,132.55c.72-1.88,1.48-3.66,1-5.71a12.89,12.89,0,0,0-2-4.55,6.48,6.48,0,0,1-.94-2.31c-.22-.93-.36-1.74.29-2a2.41,2.41,0,0,1,1.78.25,9.06,9.06,0,0,1,2.65,2.24,32,32,0,0,0,3.47,2.67c2.4,1.69,5,2.47,7.87,1.55,1.89-.6,3.84-1.2,5.86-1.92-.42-.86-1.27-1.49-1.63-2.22-.74-1.4-1.44-2.77-2.29-4.07a6.7,6.7,0,0,0-3.42-3.09,15.61,15.61,0,0,0-6.65-.64,7.35,7.35,0,0,1-3.49-.59c-1-.45-1.81-1.72-1.4-2.46a3.44,3.44,0,0,1,1.41-1.34,11.62,11.62,0,0,1,2.65-.88c1.12-.17,2.34.3,3.25-.13a8.74,8.74,0,0,0,4.29-4.55c.56-1.28.68-1.74-.6-2.5-.2-.13-.41-.25-.62-.36-4.72-2.13-10.14-1.54-15,.19-.76.27-1.69.07-2.41.4a30.85,30.85,0,0,0-4.57,2.88A28.08,28.08,0,0,1,157,105.6a26,26,0,0,1-2.59.68,1.72,1.72,0,0,1-1.5,0c-1.28-.59-2.68-.9-4-1.45-.18-.08-.21.12-.4.09s-.48-.19-.67-.1,0,.13,0,.18a.59.59,0,0,0,.11.84.53.53,0,0,0,.15.08c.2.09.44-.48.66-.4,1.3.51,2.35,1.69,3.68,2.16.51.16,1.14.19,1.35.69.64,1.62,1.46,3.19,2,4.84s.84,3.68,1.35,5.49a20.47,20.47,0,0,0,7.42,10.93,16.45,16.45,0,0,0,6.31,2.94c.25,0,.44.61.67.51S171.34,132.74,171.4,132.55Z"/></g></g></svg>