<svg xmlns="http://www.w3.org/2000/svg" viewBox="0 0 242.26 114.43"><defs><style>.cls-1{fill:#fff035;}.cls-2{fill:#fff;stroke:#000;stroke-miterlimit:10;stroke-width:0.5px;}</style></defs><title>f2</title><g id="Layer_2" data-name="Layer 2"><g id="Layer_1-2" data-name="Layer 1"><path class="cls-1" d="M228.39,5.32S50.74-13.49,19,19.62C19,19.62-23.1,38,18.06,97c0,0,3.58,52.35,224.2-24.59Z"/><path class="cls-2" d="M90.59,47.13c.81.64.78.74.33,1.29a5,5,0,0,0-.38.84c-.32,0-.55-.13-.77-.09-.61.23-1.22.62-1.83.84l-.71.36a4.45,4.45,0,0,0-2.54,1.05,5.06,5.06,0,0,0-.8.16c-.16,0-.42,0-.52.1-.16.33-.54.36-1.15.27a6.84,6.84,0,0,0-1.13.16c-1.61.34-3.12.86-4.66,1.16-2.15,1.81-13.23.81-9.64,4.72a2.81,2.81,0,0,1,.88.77c4.56,3.58,4,3.36,9.19,2.36.67-.26,1.32-.42,2-.62a5.26,5.26,0,0,1,.9-.3c2.51-.3,4.7-1.25,7.53-1.07.13.1.2.06.36.06,2.16.44,2,.28,2.75,1.92.13.26.13.58.35.71a1,1,0,0,1-.12,1.51,7.84,7.84,0,0,1-2,1c-3.25.92-6.75,1.64-10.23,2.28-3.54.34-.18,2.19-2.52,3.62a3,3,0,0,1-1.19.68c-.87.2-1.57.56-2.38.72-.58.13-1,.33-1.06.62l-3.34.08c-.07-1.09-1-1.83-1.86-3a3.35,3.35,0,0,0-3-.73,48.62,48.62,0,0,1-8.3.66c-2.13.11-4.48-.07-6.77-.12a1,1,0,0,1-1-.77L46.4,66.8c-.14-.74.21-1,.89-1.1,1.22-.13,2.38-.07,3.41-.27l3.48-.31c7.92.66,5.52-3.13,1.28-7-.39,0-.61-.09-.9,0-2.16.37-3.51.41-5.83.62A9.27,9.27,0,0,0,46.8,59a6.34,6.34,0,0,1-2.8.21,5.16,5.16,0,0,0-1.93.33,6.48,6.48,0,0,1-1.87.3c-1.48-.05-3-.17-4.54-.2L34.33,57A8.18,8.18,0,0,1,33.4,53a2.36,2.36,0,0,1,1.89-2.49,10.61,10.61,0,0,1,2.7-.24,58.56,58.56,0,0,0,8.92-.73c3.35-.41.72-3.19-.51-4.67-.23-.29-.49-.64-.17-1,.81,1.12,1.82,2.3,2.63,3.27a6.82,6.82,0,0,0,1.39,1.31,2.89,2.89,0,0,0,2.42.31c-.16-.32-.36-.87-.56-1.26a1.49,1.49,0,0,0-.55-.6,10.78,10.78,0,0,1-1.3-2.25,4.51,4.51,0,0,0-.88-1.41,13.3,13.3,0,0,1-.84-1.51,7.76,7.76,0,0,1-.64,1,4,4,0,0,1-1.35.36l-.23-.45-.19-.06a8.18,8.18,0,0,1-.45,1,3.21,3.21,0,0,1,.82-2.68,1.06,1.06,0,0,1,.36.39c1.26-.07.87-.85.44-1.68,1.17.54,1,1.35,1.43,2l.15-1.45c.36.38.56.93,1.39.83l-.49-1.29c.36.39.71.61.91.84a1.34,1.34,0,0,0,.94.57,5.05,5.05,0,0,1-.23-.93,50.3,50.3,0,0,0,3.88,3.84c.84.86,1.75,1.86,2.69,2.75a2.63,2.63,0,0,0,2.45.86,15.62,15.62,0,0,0,3.93-.86,19.74,19.74,0,0,1,2.83-.63c1.64-.27,3.08-.92,4.63-1.22s2.83-.79,4.31-1.05c.12-.07.35.06.61.09s.38,0,.42-.13c.7-.84,2-.94,3.11-1.18.2-.09.42-.13.55-.19.8-.65,1.9-.56,2.89-.66.42-.13,1.1.25,1.75.41A3.41,3.41,0,0,0,86,43a1.34,1.34,0,0,0,.32.48c1.2.44,1.49,1.5,2.69,1.95.35.22-.23.35.1.51a2.3,2.3,0,0,1,.58.19c.13.26.06.45.13.74ZM65.82,68a11,11,0,0,1,1.23,1.64c.59.67.94.73,1.94.63-.16-.32-.23-.77-.43-1.16s0-.58.29-.87c.55.45.84,1,1.74,1.22a17.2,17.2,0,0,0-1.45-1.77ZM62.35,63.4c-.1-.2-.1-.36-.2-.39l-2.59-2.08c.65.64,1.2,1.41,1.85,2C61.67,63.34,62,63.59,62.35,63.4Zm-.08-1.9a4.91,4.91,0,0,0,1,1A1.07,1.07,0,0,0,62.27,61.5Zm-2.37-4a6.37,6.37,0,0,0,1.49,2,4,4,0,0,1,1,1.25,2,2,0,0,0,1.07,1A25.8,25.8,0,0,0,60.06,57Zm-1.5,2.14a7.38,7.38,0,0,0,.94,1,7,7,0,0,1-.62-1.06C58.66,59.62,58.46,59.55,58.4,59.59ZM61,57c.16.48,0,1,1.13,1.44C61.61,57.8,61.67,57.28,61,57ZM46.5,40.91l-.09,0,.13-.06Z"/></g></g></svg>