<svg xmlns="http://www.w3.org/2000/svg" viewBox="0 0 232 141.02"><defs><style>.cls-1{fill:#009fc9;}.cls-2{fill:#fff;stroke:#000;stroke-miterlimit:10;stroke-width:0.5px;}</style></defs><title>f3</title><g id="Layer_2" data-name="Layer 2"><g id="Layer_1-2" data-name="Layer 1"><path class="cls-1" d="M232,74S77.21-15.15,34.75,2.25c0,0-45.9-.27-32.2,70.41,0,0-17.94,49.32,214.93,68.36Z"/><path class="cls-2" d="M60.09,45.51,59.5,44a6.89,6.89,0,0,1-.77-2.9,1.41,1.41,0,0,1,.18-.93c.16-.43.46-.78.69-1.28.43.16.56.6.69,1,.94,2,2.17,3.9,3.25,5.88a1.06,1.06,0,0,0,.92.61c.65,0,1.36.19,2,.21.5.09.93.1,1.13.69.13.36.49.38,1,.39a6.54,6.54,0,0,0-.63-.52c.09-.43,1-.26,1.22.25.07.08.07.15.14.15s.06.15.2.3c1.8.06,3.75.13,5.61.26a10,10,0,0,1,1.44.2,11,11,0,0,0,4.32.15,25.9,25.9,0,0,1,3.39-.25c.79,0,1.59,0,2.38,0a15.18,15.18,0,0,1,1.79.21l-.67.62.28.23a.55.55,0,0,0,.36.08c0,.58-.26,1.29.6,1.32a1.36,1.36,0,0,1-.33,1.21A5.17,5.17,0,0,1,87.57,53a16.59,16.59,0,0,1-5.18,1.91c-.28,0-.65.12-.85-.32,0-.07-.43-.08-.65-.09l-1.74.37a40.39,40.39,0,0,1-9.33,1l-1.16.17a8.28,8.28,0,0,0,.34.81,15.65,15.65,0,0,1,1.86,4.39c.32,1.16.64,2.47.88,3.7a5.66,5.66,0,0,0,2.43,2.75c2.12,1.3,3.93,3,5.91,4.24a1.57,1.57,0,0,1,.47,1c.09,1.66,1.6-.38,1,1.12.45,3.69-1.8,2-3.64,3.26-1.47-1.21-2.94-2.48-4.34-3.75l-2-2c-1-1,.14.15-1-.82l-.6.62-1.13,1.41a1.14,1.14,0,0,1-1.23.31A1.36,1.36,0,0,1,68,71.72a18.75,18.75,0,0,0,1-2.06.72.72,0,0,0-.12-.65l-2.59-2.4a3.88,3.88,0,0,1-.56-.38,58.83,58.83,0,0,0-7-5.13l-8.51-5.85a6.81,6.81,0,0,0-3.56-1.41c-1.57-.2-3.08-.54-4.58-.88a39.74,39.74,0,0,1-7.38-3.14c-.78-.46-.84-.68-.6-1.46l.9-3.21a1.94,1.94,0,0,1,.54-1,18.8,18.8,0,0,1,1.86-1.59,3.64,3.64,0,0,1,1.16-.4,11.89,11.89,0,0,1,4.75.24c2.08.36,4.08.72,6.16,1.15.21,0,.5.09.79.1a14.22,14.22,0,0,1,4.57,1,20.28,20.28,0,0,0,3.58.84,10.85,10.85,0,0,0,1.5.13Zm4.81,11a1.08,1.08,0,0,0-1-.75c-1.15,0-2.37-.16-3.52-.27-7.75-.84-3.57,1.18,1,3.85C66.74,63.82,68.24,62.07,64.9,56.55Z"/></g></g></svg>