<svg xmlns="http://www.w3.org/2000/svg" viewBox="0 0 208.77 207.2"><defs><style>.cls-1{fill:#1fb26f;}.cls-2{fill:#fff;stroke:#000;stroke-miterlimit:10;stroke-width:0.5px;}</style></defs><title>f4</title><g id="Layer_2" data-name="Layer 2"><g id="Layer_1-2" data-name="Layer 1"><path class="cls-1" d="M208.77,153.21S108.21,5.55,62.41,2.73c0,0-41.2-20.22-59.63,49.38,0,0-37.62,36.59,163.76,155.09Z"/><path class="cls-2" d="M38.17,61.64c-.65-.93-1.26-1.92-1.87-2.92-.41-.66-.41-1,0-1.49a28.42,28.42,0,0,0,2-2.88c1.28-1.47,2.76-2.62,4.5-2.31a8.36,8.36,0,0,1,2.09.57.93.93,0,0,1,.65.57,11.91,11.91,0,0,0,2.48,3.19c3.79,4.43,5.27,7.15,4,1.57-.82-2.41-1.74-4.79-2.47-7.31-.86-3.06-2.57-9.81-2.3-13.2v-1a2.2,2.2,0,0,1,.47-1.71,5.39,5.39,0,0,0,.43-.94,17.56,17.56,0,0,1,2.44-4,2.29,2.29,0,0,1,2.76-.46,15.15,15.15,0,0,1,4.66,4.36c1.17,1.68,3.5,7,4.73,8.72a13.38,13.38,0,0,1,1.42,2.31c.29.58.84.8,1.18,1.32a35.12,35.12,0,0,0,2.33,2.9c.47.44.76,1,1.2,1.52a1.6,1.6,0,0,0,.59.53,3.42,3.42,0,0,1,1.75,1.39c.52.75,1.6,2.44,2.21,2.45A1,1,0,0,1,74,55l1.06.25c.18-1.93-.56-3.47-.62-5.31a2.3,2.3,0,0,0,1.42.61c.15-.07.34.16.41.3.3.68.57,1.41.83,2.14.29.94.53,1.83.88,2.81a4.25,4.25,0,0,1,.13,2,32.16,32.16,0,0,1-.66,3.54c-.72,2.42-2.43,4.48-4.69,3.42-1.16-.5-2.38-1.14-3.55-1.74a6.12,6.12,0,0,1-.73-.72c-.66-.67-1.79-2.77-2.63-2.85a2.4,2.4,0,0,1-1.47-1.28,6.91,6.91,0,0,0-1-1.29c-.13-.19-.42,0-.73-.1C62.38,55.5,61.44,55.07,61,54S59.6,52.72,59,51.67c0,.1,0,.16-.12.27.64.84,1.29,1.77,1.89,2.66l-.09.12c-.91-1.31-1.92-2.6-2.94-3.89-2.37-2.49-6.19-11-7.45-8.32l3.31,9.9a6.58,6.58,0,0,1,.4,2,10.58,10.58,0,0,0,1,3.51,12.86,12.86,0,0,1,1.12,3.44,14.57,14.57,0,0,0,1.18,3.48,17.63,17.63,0,0,1,1.75,4.89,9.8,9.8,0,0,0,1.28,3.1c.63,1.1,1.3,2.13,1.88,3.28a15.49,15.49,0,0,0,2.11,3.19,4.54,4.54,0,0,1,1.27,2.64c.08.25.13.55,0,.66a3.56,3.56,0,0,0-.19,1.83,9.79,9.79,0,0,1-.69,3,10.48,10.48,0,0,1-1.71,2.41,1.56,1.56,0,0,1-1.67-.16,29.83,29.83,0,0,0-4.21-3.76,48.59,48.59,0,0,1-9.85-11.72l-4.18-6.7a12.84,12.84,0,0,0-1-1.19,26.93,26.93,0,0,0,2.14,4.37c-.08-.14-.29-.21-.42-.4Z"/></g></g></svg>