<svg xmlns="http://www.w3.org/2000/svg" viewBox="0 0 156.29 239.94"><defs><style>.cls-1{fill:#fff035;}.cls-2{fill:#fff;stroke:#000;stroke-miterlimit:10;stroke-width:0.5px;}</style></defs><title>f5</title><g id="Layer_2" data-name="Layer 2"><g id="Layer_1-2" data-name="Layer 1"><path class="cls-1" d="M156.29,207.59S123.89,31.9,83.12,10.84c0,0-29.53-35.13-74.48,21.11,0,0-49.19,18.29,87.22,208Z"/><path class="cls-2" d="M61.79,64.88l2.28-.15c1.68-.08,3.38-.24,5-.22a15.66,15.66,0,0,1,3,.12,4.63,4.63,0,0,1,3,1.51,10.11,10.11,0,0,1-.38,1.75A16.21,16.21,0,0,1,73.86,70a1.35,1.35,0,0,1-.47.33c-.84.28-1.67.56-2.46.9a12,12,0,0,1-4,.64,25,25,0,0,0-3,.1,3.62,3.62,0,0,1-1.23,0A16.39,16.39,0,0,0,60,72c-3.8-.1-5.29-1.84-4.42,3.65.16,1.54.33,3.08.56,4.59l.42,3A2.32,2.32,0,0,1,56,85.4c-.19.11-.18.43-.3.66-.53-.38-.53-.38-1,.44a.53.53,0,0,1-.25.29,1.19,1.19,0,0,1-1.62-.28,2.37,2.37,0,0,1-.51-1.12c-1-2.81-1.91-5.75-2.91-8.56-.58-1.56-1.1-3.16-1.75-4.69a1,1,0,0,0-.56-.6,1.45,1.45,0,0,1-1.23-1.39,15.63,15.63,0,0,1-.54-4c0-.06,0-.16.05-.35a3.9,3.9,0,0,1,1.07.32c-1.18-6.54-3.32-22-3.9-28.73a4.28,4.28,0,0,1,1.33-1.19,5.4,5.4,0,0,1,4-1l2.07.21a3.81,3.81,0,0,1,2,.95,1.93,1.93,0,0,1,.49,1.53c0,.55.15,1.06.17,1.71a4.8,4.8,0,0,1,.18,1c0,1.8,1.39,12.3,1.65,13.87.83,6.49,10-13,12.14-16.45.5-.76,1-1.61,1.56-2.29a16.53,16.53,0,0,1,1.25-1.48c.35-.27.61-.24.75.17,0,.87.26,1.74.31,2.6a3,3,0,0,1-.35,1.33,2.18,2.18,0,0,1-.52,1A8,8,0,0,0,68.42,43l-.27.87-2.8,6.7c-.43,1-5.17,7.47-5.8,8.29-.68,1-5,7.3.47,6.11C61.46,64.72,60.41,65,61.79,64.88Zm8.39.44c-.11-.35-.46-.24-.72-.27a7.39,7.39,0,0,1-1.07-.17A1.75,1.75,0,0,0,67,64.79a5.12,5.12,0,0,1-1.76.36A1.89,1.89,0,0,0,64.4,65c-.8.18-1.61-.12-2.44.32-.06,0-.06,0-.16,0a2.89,2.89,0,0,0-1.7.17,5.37,5.37,0,0,1-1,.12l-3,0a.29.29,0,0,1-.23,0L54.73,66l-.58.14c0,.07,0,.07,0,.16l.84,0a1.1,1.1,0,0,1,.68.21,1.3,1.3,0,0,0,1.64.18,2.76,2.76,0,0,1,2.48-.25,1.35,1.35,0,0,0,1.57-.26c.09-.13.26-.14.29-.07A3.79,3.79,0,0,0,62.94,66a6.44,6.44,0,0,1,1.8-.14c.07,0,.07,0,.16,0,.34.64,1,.3,1.52.1a5.53,5.53,0,0,1,2.25-.38Zm-1.51.23a3.18,3.18,0,0,1-.71.21c.68.21.68.21,1-.06Zm2.53-.28a.92.92,0,0,0-1,0,3.43,3.43,0,0,0,.9.17C71.17,65.36,71.14,65.3,71.2,65.27Z"/></g></g></svg>