<svg xmlns="http://www.w3.org/2000/svg" viewBox="0 0 156.29 239.94"><defs><style>.cls-1{fill:#fff035;}.cls-2{fill:#fff;stroke:#000;stroke-miterlimit:10;stroke-width:0.5px;}</style></defs><title>f7</title><g id="Layer_2" data-name="Layer 2"><g id="Layer_1-2" data-name="Layer 1"><path class="cls-1" d="M0,207.59S32.39,31.9,73.16,10.84c0,0,29.53-35.13,74.49,21.11,0,0,49.19,18.29-87.22,208Z"/><path class="cls-2" d="M111.13,69A17,17,0,0,1,109,72.11c-.44.42-1,.72-1.1,1.3-.12.42-.63.82-1.08,1.25.17.15.33.15.56.34A13.87,13.87,0,0,1,106,76.57a3.39,3.39,0,0,0-1,1.34c-.22.45-1,.63-1.53,1l-1.66,1.12a3.48,3.48,0,0,0-.69.79c.36.41-.45,1.94-.93,2.43a11.28,11.28,0,0,1,3.1,2.2l-2.48.33a18.51,18.51,0,0,0-2.25.36,3.33,3.33,0,0,0-1.56,1.09c-.15.17-.18.39-.31.49-1.06.37-1.07,1.4-2.09,1.87-.1,0-.13.1-.19.23l-1,1.66a5.09,5.09,0,0,1,.46.38l-1.13.18a10.88,10.88,0,0,0-1.08.92,8.59,8.59,0,0,1-2.48,1.68,2.52,2.52,0,0,1-.57.21A9,9,0,0,1,85,94.8a11.08,11.08,0,0,0-2.1-.13c-1.45-.14-3-.3-4.55-.34-.8,0-1.64-.07-2.41-.12a7,7,0,0,1-2.53-.89A5.15,5.15,0,0,0,74.3,93l-1.1-.37a8,8,0,0,1-2.75-.92c-.91-.59-1.92-1-2.86-1.53a7.12,7.12,0,0,1-1.14-.78c-.17-.16-.23-.35-.43-.45a2.5,2.5,0,0,1-1.39-2.1c-.21-1.06-.36-2.25-.47-3.34-.07-.35.56-1,1.3-1.21a5.59,5.59,0,0,1,2.73-.21,12.22,12.22,0,0,1,2.75.6,22.94,22.94,0,0,0,5.84.64L86,83.7c1.19,0,1.29,0,1.92-.84s1.16-1.59,1.79-2.41l.07-.13c.71-1.49,1.71-1.74,2.68-3.11l3-4.23a.3.3,0,0,0,0-.32l-.85,1.11A12.63,12.63,0,0,1,97,70.67c-.07,0-.13-.07-.1-.13a3,3,0,0,0-.89.53c-1,1-2.08.84-3.42,1.63-.8.5-1.37,1-1.42,1.8a.58.58,0,0,1-.22.45,8.77,8.77,0,0,1-1.18.64c-1.53,1-3.11.82-4.72.69-.68-.09-1.33-.24-2-.39-3.43-.68-5.13-2.46-4.95-5.17.15-2.32-1.13-1.81.35-4.06,2.39-3.49,1.62-3,4.56-6.36,2-2,3.8-3.6-.28-3.08a5,5,0,0,0-2.08.35,4.07,4.07,0,0,1-1.06.38,1.71,1.71,0,0,1-.55-.19c0-.09.15-.32.28-.42A19,19,0,0,0,82,55.43,48.09,48.09,0,0,1,87.88,52l1.89-.93,1.66-.48a3.7,3.7,0,0,0,1.19-.47,2.52,2.52,0,0,1,1.54-.22c3.46.78,5.55,2.58,6.3,5.17.51,1.61-.36,3.1-1.63,4.57-1,1.11-1.92,2.35-2.87,3.5-.54.62-1,1.27-1.61,1.86-2.09,1.87.13.38-1.8,2.41-11,12,14.77-5,17.94-7.77a16,16,0,0,1,2-1.74l3.21-2.53a14,14,0,0,0,1.56-1.25.94.94,0,0,1,1-.18c1.46.62.51-.4,1.4.75.89,1,0,.58.38,1.7.51,1.44-2.78,2.65-3.89,4.12s-2,2.58-3,4.17c-.82,1.21-1.5,2.8-2.42,4C110.9,68.79,111,68.92,111.13,69ZM70.44,89.24c.69.89,1.66,1,3.08,1.08a21.23,21.23,0,0,0,3.28-.19c4.67.25,12.17-5.74,2.73-4.2A26.51,26.51,0,0,1,72.46,85l-1.32-.23c-.88-.18-1.42.12-1.44.83l.17,2.15a.63.63,0,0,0,.52.73c.33.16.5.48.89.83Zm15.09-2.83-.57.53c.32-.17.48-.33.7-.46Zm3.3-2.72c1.46-1.7,3.07-3.24,3.81-5.12A47.83,47.83,0,0,0,88.83,83.69Zm4.29-5.78,1.53-2.37c1-1.21,1.93-2.36,2.94-3.47l2.84-3.43c-.22,0-.32,0-.38.14-1.61,1.86-3.29,3.69-4.84,5.59-.25.36-.72.69-.52,1.1A3.54,3.54,0,0,0,93.12,77.91Z"/></g></g></svg>