<svg xmlns="http://www.w3.org/2000/svg" viewBox="0 0 208.77 207.2"><defs><style>.cls-1{fill:#1fb26f;}.cls-2{fill:#fff;stroke:#000;stroke-miterlimit:10;stroke-width:0.5px;}</style></defs><title>f8</title><g id="Layer_2" data-name="Layer 2"><g id="Layer_1-2" data-name="Layer 1"><path class="cls-1" d="M0,153.21S100.55,5.55,146.36,2.73c0,0,41.2-20.22,59.63,49.38,0,0,37.61,36.59-163.76,155.09Z"/><path class="cls-2" d="M127.87,60.84l8.51-5.6a10.14,10.14,0,0,1,2.18-1.19L142,52.24a15.47,15.47,0,0,1,4.19-1.53,2.92,2.92,0,0,1,2.51.82.79.79,0,0,0,1.08.34c1,0,1.86,0,2.88-.07a11.76,11.76,0,0,1,7,2.35,4,4,0,0,1,1.57,2.26,32.46,32.46,0,0,1,.49,3.9,13.71,13.71,0,0,1-1.16,5.09,16.16,16.16,0,0,1-2.8,4.91,12.7,12.7,0,0,1-3.54,2.86c-.25.09-.44.49-.68.58-.46.64-1,1.25-1.44,1.89-1.14,1.22-2.57,2.24-3.55,3.48a31.88,31.88,0,0,1-4.46,3.9,24,24,0,0,1-3.15,2.17,16,16,0,0,1-4.43,2.24,5.28,5.28,0,0,1-1.25.52c-1.71.28-3.3.65-5.17.91a9.88,9.88,0,0,1-5.36-.55,10.36,10.36,0,0,1-1.3-.4,2.59,2.59,0,0,1-1.88-1.08,10,10,0,0,0-1.11-1.06,6.62,6.62,0,0,1-2-2.86,13.53,13.53,0,0,1-.73-8.14,17,17,0,0,1,3.07-6.65c.07-.22.25-.35.32-.57A21.58,21.58,0,0,1,127.87,60.84Zm2.76,4.8a12.24,12.24,0,0,0-1.9,1.92c-.56.66-1.16,1.12-1.62,1.76a31.36,31.36,0,0,1-1.48,3.19c-.76,1.94-1.49,3.71-2.35,5.4a4,4,0,0,0-.41,3.43,1.33,1.33,0,0,0,1.09,1,10.41,10.41,0,0,0,3.1.36,31.66,31.66,0,0,0,10.77-2.93,41.67,41.67,0,0,0,10.43-7.42A83.12,83.12,0,0,0,153.92,66a3.36,3.36,0,0,0,.81-2.87,2.17,2.17,0,0,0-1.56-1.91,8.66,8.66,0,0,0-1.55-.31,1.85,1.85,0,0,0-1.22.1c-1.36.54-2.59,1.16-4,1.69a15.47,15.47,0,0,0-2.74,1.23,20.53,20.53,0,0,1-2.47,1.6.53.53,0,0,0-.52.24c-1.59,1-3.12,1.76-4.61,2.73a.72.72,0,0,1-1,.07c-.47-.33-1-.55-1.2-1a12.22,12.22,0,0,0-2.39-2.85A4.61,4.61,0,0,0,130.63,65.64Z"/></g></g></svg>