<svg xmlns="http://www.w3.org/2000/svg" viewBox="0 0 232 141.02"><defs><style>.cls-1{fill:#009fc9;}.cls-2{fill:#fff;stroke:#000;stroke-miterlimit:10;stroke-width:0.5px;}</style></defs><title>f9</title><g id="Layer_2" data-name="Layer 2"><g id="Layer_1-2" data-name="Layer 1"><path class="cls-1" d="M0,74S154.79-15.15,197.26,2.25c0,0,45.89-.27,32.19,70.41,0,0,18,49.32-214.93,68.36Z"/><path class="cls-2" d="M165.68,62c.76.29,7.51-.05,8.8,0,1.09,0,2.22,0,3.29-.08a92.12,92.12,0,0,1,10-.17c.45,0,3.52.6,4,.52.18.39.49.72.52,1,.48,1.2.92,2.35,1.33,3.58.24.53-2.52.21-3.19.29l-4.53.5a14.32,14.32,0,0,1-4.7-.06,10.07,10.07,0,0,0-2.39,0c-3.89.68-8.67.27-12.54,1.34-2.41.64-9.2.51-8.18,2.74-.24.51-.35,1.11-1,1.48-1.18.7-2.71.14-4.2-.68-.41-.21-.85-.64-1.29-.91a5.18,5.18,0,0,1-2-2.9,9.86,9.86,0,0,0-.43-1.46c-.3-.82-.31-1.53.31-1.89A9,9,0,0,1,152.08,64c5.9-1,3.31-2.64.11-4.25a31.3,31.3,0,0,1-5-2.93,11.34,11.34,0,0,1-4.84-6.73c-.58-2.11.27-3.54,1.66-4.81a13.84,13.84,0,0,1,6.7-2.69c2.33-.44,4.51-1,6.84-1.49,4.89-.75,6.75-1.36,11.88-1.59,1.54-.07,3-.25,4.42-.37l2.66-.43a1.7,1.7,0,0,1,.91.77l1.38,2a6.92,6.92,0,0,1,.95,2.57c0,1.13.31,2.4.28,3.52,0,2-1.29,3.06-3.75,3.4-2.75.23-2.67-.12-5.36.24-1.16.06-2.23.32-3.36.44-2.08.32-4.21.51-6.34.87a17.67,17.67,0,0,0-2.08.32,32.14,32.14,0,0,1-6,.64c-10.09,1,6.14,6.29,8.91,7.47C163.25,61.37,164.47,61.6,165.68,62Z"/></g></g></svg>