<svg xmlns="http://www.w3.org/2000/svg" viewBox="0 0 129.23 198.12"><defs><style>.cls-1{fill:#944f00;}.cls-2{fill:#bf1000;}.cls-3{fill:#e97400;}.cls-4{fill:#fff;}</style></defs><title>head</title><g id="Layer_2" data-name="Layer 2"><g id="Layer_1-2" data-name="Layer 1"><rect class="cls-1" x="40.57" y="88.12" width="45.33" height="110"/><ellipse class="cls-1" cx="64.62" cy="68.51" rx="64.62" ry="68.51"/><path class="cls-2" d="M108,132.62c2.33-7.45,4.26-15.14,1.75-22.82a17.69,17.69,0,0,0-14-12.42c-7.64-1.27-15.37,2.61-22.86.48-6.2-1.76-8.85,7.89-2.65,9.65,7.08,2,13.49-.24,20.59-.46,8.12-.25,10.87,6.18,9.93,13.47-1,7.82-4.89,14.92-5.57,22.86-.57,6.76,1.25,13.4,6.08,18.28,4.53,4.58,11.6-2.49,7.07-7.07C102.48,148.64,105.83,139.47,108,132.62Z"/><path class="cls-3" d="M38.9,106.79l23.52,56.66,27.15-56.66S64.23,93.45,38.9,106.79Z"/><circle class="cls-4" cx="43.4" cy="56.62" r="13.5"/><circle class="cls-4" cx="88.4" cy="56.62" r="13.5"/><circle cx="47.4" cy="60.62" r="9.5"/><circle cx="84.4" cy="60.62" r="9.5"/></g></g></svg>