<svg xmlns="http://www.w3.org/2000/svg" viewBox="0 0 86.57 179.74"><defs><style>.cls-1{fill:#ff7200;}</style></defs><title>lfoot</title><g id="Layer_2" data-name="Layer 2"><g id="Layer_1-2" data-name="Layer 1"><path class="cls-1" d="M86.51,167.44a118.82,118.82,0,0,0-10-33.89c-2.21-4.76-6.36-13.69-11.86-18.18.92-6.4,1.56-12.84,1.86-19.33C68,65.51,60,35.3,63,4.78c.62-6.4-9.38-6.35-10,0-2.87,29.33,4.53,58.34,3.73,87.67A186.87,186.87,0,0,1,55,113.2c-3.85,1.35-7.65,4.84-10.69,6.93q-7.58,5.18-14.89,10.72Q15,141.77,1.58,153.93c-4.77,4.34,2.32,11.4,7.07,7.08a376.23,376.23,0,0,1,43.93-34.44,191.73,191.73,0,0,1-15.94,45.58c-2.86,5.74,5.76,10.81,8.63,5a204.86,204.86,0,0,0,17.07-48.68,11.57,11.57,0,0,1,.8,1.08,81,81,0,0,1,6.43,12.75,113.83,113.83,0,0,1,7.3,27.75C77.74,176.45,87.38,173.75,86.51,167.44Z"/></g></g></svg>