<svg xmlns="http://www.w3.org/2000/svg" viewBox="0 0 104.07 183.47"><defs><style>.cls-1{fill:#ff7200;}</style></defs><title>rfoot</title><g id="Layer_2" data-name="Layer 2"><g id="Layer_1-2" data-name="Layer 1"><path class="cls-1" d="M102.33,152.92a396.59,396.59,0,0,1-43.19-39.57c-.14-6.48.07-13-.11-19.28Q57.72,49.4,54.57,4.81c-.45-6.39-10.46-6.44-10,0q3.21,45.57,4.52,91.25c.17,6.06,0,12.32.13,18.56A545.39,545.39,0,0,1,2.14,154.06c-5.11,3.8-.13,12.48,5.05,8.63q22.32-16.6,42.93-35.32a57.14,57.14,0,0,0,2.69,11.42c4.92,13.87,10.49,27.55,15.73,41.3,2.28,6,11.95,3.37,9.65-2.66C73,164,67.72,150.52,62.76,137a50.72,50.72,0,0,1-2.14-7.74A396.58,396.58,0,0,0,95.26,160C100.26,163.94,107.39,156.91,102.33,152.92Z"/></g></g></svg>